<?xml version="1.0" encoding="UTF-8" standalone="no"?>
<!-- Created with Inkscape (http://www.inkscape.org/) -->

<svg
   xmlns:osb="http://www.openswatchbook.org/uri/2009/osb"
   xmlns:dc="http://purl.org/dc/elements/1.1/"
   xmlns:cc="http://creativecommons.org/ns#"
   xmlns:rdf="http://www.w3.org/1999/02/22-rdf-syntax-ns#"
   xmlns:svg="http://www.w3.org/2000/svg"
   xmlns="http://www.w3.org/2000/svg"
   xmlns:xlink="http://www.w3.org/1999/xlink"
   xmlns:sodipodi="http://sodipodi.sourceforge.net/DTD/sodipodi-0.dtd"
   xmlns:inkscape="http://www.inkscape.org/namespaces/inkscape"
   width="322mm"
   height="297mm"
   viewBox="0 0 322 297"
   version="1.1"
   id="svg8"
   inkscape:version="0.92.4 (5da689c313, 2019-01-14)"
   sodipodi:docname="logo.svg">
  <defs
     id="defs2">
    <linearGradient
       id="linearGradient4600"
       osb:paint="solid">
      <stop
         style="stop-color:#de52b5;stop-opacity:1;"
         offset="0"
         id="stop4598" />
    </linearGradient>
    <linearGradient
       inkscape:collect="always"
       xlink:href="#linearGradient4600"
       id="linearGradient4602"
       x1="-101.42839"
       y1="115.25684"
       x2="157.02019"
       y2="115.25684"
       gradientUnits="userSpaceOnUse"
       gradientTransform="translate(142.18739,35.279578)" />
  </defs>
  <sodipodi:namedview
     id="base"
     pagecolor="#ffffff"
     bordercolor="#666666"
     borderopacity="1.0"
     inkscape:pageopacity="0.0"
     inkscape:pageshadow="2"
     inkscape:zoom="0.24748737"
     inkscape:cx="-527.85788"
     inkscape:cy="887.91258"
     inkscape:document-units="mm"
     inkscape:current-layer="layer1"
     showgrid="false"
     showborder="true"
     inkscape:window-width="1280"
     inkscape:window-height="777"
     inkscape:window-x="1016"
     inkscape:window-y="-8"
     inkscape:window-maximized="1" />
  <metadata
     id="metadata5">
    <rdf:RDF>
      <cc:Work
         rdf:about="">
        <dc:format>image/svg+xml</dc:format>
        <dc:type
           rdf:resource="http://purl.org/dc/dcmitype/StillImage" />
        <dc:title></dc:title>
      </cc:Work>
    </rdf:RDF>
  </metadata>
  <g
     inkscape:label="Layer 1"
     inkscape:groupmode="layer"
     id="layer1">
    <path
       style="fill:#ff5599;stroke:#000000;stroke-width:4.66499996;stroke-linecap:butt;stroke-linejoin:miter;stroke-miterlimit:4;stroke-dasharray:none;stroke-opacity:1"
       d="m 177.74801,43.090988 c -25.86493,-0.120042 -58.45382,7.453059 -91.152575,35.549769 0,0 -21.114154,29.666843 36.081515,62.273713 l 32.6068,27.79624 c 0,0 1.87081,-25.39052 9.62163,-32.6068 0,0 -53.72133,-34.21044 -42.76328,-40.624906 0,0 61.47194,-31.003642 41.96126,10.423136 l 22.71799,7.75095 c 0,0 15.23461,-14.16553 37.15071,-10.15649 0,0 39.5555,-32.072211 6.41408,-48.91019 0,0 -21.42184,-11.350544 -52.63813,-11.495422 z M 100.76046,179.93586 c 0,0 -29.934236,49.71206 14.96705,64.94643 0,0 45.43597,16.3036 73.76655,-8.55245 0,0 15.23454,-10.95815 21.11447,-24.05435 0,0 -38.75417,3.20748 -53.72126,-16.83773 0.52117,9.90226 -51.17066,30.28517 -29.66692,-14.16555 z"
       id="path28"
       inkscape:connector-curvature="0" />
    <path
       style="fill:#aad400;fill-opacity:1;stroke:#000000;stroke-width:4.03499985;stroke-miterlimit:4;stroke-dasharray:none;stroke-opacity:1"
       d="m 186.64878,259.76675 c -1.17979,-0.47606 -0.74142,-1.07001 3.05171,-4.13471 5.84011,-4.7186 12.97638,-11.71015 20.11419,-19.70629 7.20183,-8.06785 17.13584,-20.57651 16.92453,-21.31092 -0.0735,-0.25544 0.0877,-0.46443 0.35814,-0.46443 0.27047,0 2.13468,-2.1956 4.14267,-4.87911 2.008,-2.68351 4.66671,-6.23152 5.90824,-7.88445 2.24926,-2.99458 2.78616,-4.34168 1.73041,-4.34168 -0.90456,0 -4.53658,1.99107 -5.29166,2.90089 -0.38383,0.46248 -0.9176,0.84088 -1.18614,0.84088 -0.26855,0 -2.70466,1.4104 -5.41358,3.13422 -2.70891,1.72383 -6.96991,4.17156 -9.46888,5.4394 l -4.54358,2.30517 -7.19359,0.23401 c -10.58543,0.34436 -17.39364,-0.74059 -30.12097,-4.80004 -6.07012,-1.9361 -9.8968,-4.38327 -12.74316,-8.14929 -4.15249,-5.49416 -5.92361,-13.84913 -4.76926,-22.49822 0.35217,-2.6387 0.67632,-5.21858 0.72033,-5.73307 0.044,-0.5145 0.23043,-0.93545 0.41427,-0.93545 0.18384,0 0.65521,-1.74393 1.0475,-3.87541 0.39228,-2.13147 1.15249,-4.71374 1.68935,-5.73837 0.53687,-1.02464 0.97612,-2.23938 0.97612,-2.69943 0,-0.46004 0.19144,-1.06496 0.42542,-1.34426 0.23398,-0.2793 0.74275,-1.46998 1.1306,-2.64597 3.29697,-9.99661 10.51382,-20.47576 21.01301,-30.51174 7.20737,-6.8894 14.65259,-11.60397 21.93135,-13.88769 1.69048,-0.5304 3.0736,-1.1275 3.0736,-1.32691 0,-0.1994 3.90882,-0.32041 8.68626,-0.2689 7.43794,0.0802 9.224,0.26932 12.42803,1.31597 6.47499,2.11517 16.83798,8.02016 16.83798,9.59453 0,0.21135 -1.27497,1.00958 -2.83328,1.77384 -1.55831,0.76427 -4.21597,2.65327 -5.90592,4.19779 -2.81292,2.57085 -8.24065,10.16371 -10.78095,15.08146 -0.89479,1.73223 -1.29123,2.00719 -2.91841,2.02417 -2.85072,0.0297 -9.30064,1.38637 -9.50491,1.99918 -0.0991,0.29721 -0.6873,0.40775 -1.30717,0.24565 -0.61986,-0.1621 -0.99223,-0.0764 -0.82747,0.19038 0.16476,0.26681 -0.3256,0.52272 -1.08969,0.56868 -0.76409,0.046 -1.70318,0.51289 -2.08686,1.03761 -0.38369,0.52472 -0.69761,0.78161 -0.69761,0.57087 0,-1.54397 -9.45549,6.01222 -9.94023,7.94357 -0.18255,0.72734 -0.66664,1.32243 -1.07577,1.32243 -0.66886,0 -0.84118,0.35206 -0.69597,1.42193 0.0264,0.19407 -0.33447,0.56683 -0.8018,0.82837 -0.46734,0.26153 -0.84971,0.95885 -0.84971,1.54958 0,0.64921 -0.23409,0.92939 -0.5918,0.70831 -0.40316,-0.24917 -0.4701,0.0177 -0.21001,0.8372 0.26043,0.82053 0.19335,1.08648 -0.211,0.83658 -0.66205,-0.40917 -1.85177,2.16227 -1.36489,2.95005 0.16645,0.26932 0.0206,0.48968 -0.32412,0.48968 -0.38984,0 -0.53935,0.59549 -0.39553,1.57539 0.13613,0.92751 0.0195,1.44454 -0.28358,1.25722 -0.96889,-0.5988 -0.0898,9.63187 0.96617,11.2434 1.87808,2.86633 3.92426,3.83429 8.02742,3.79748 2.05798,-0.0185 4.70395,-0.35034 5.87993,-0.73749 3.89023,-1.28073 10.40584,-4.43776 10.11846,-4.90274 -0.15541,-0.25145 -2.91659,-1.92509 -6.13595,-3.71921 -3.21937,-1.79411 -5.85339,-3.47131 -5.85339,-3.72711 0,-0.98207 13.94298,-11.43599 17.63979,-13.22563 1.32298,-0.64047 3.78854,-2.25462 5.47902,-3.58699 2.55375,-2.01278 3.0736,-2.70134 3.0736,-4.07111 0,-1.15502 0.49705,-2.11293 1.66015,-3.19942 1.45063,-1.3551 2.06545,-1.55081 4.8717,-1.55081 3.52923,0 7.78169,1.79521 6.86601,2.89853 -0.26291,0.31679 -0.49846,0.75638 -0.52347,0.97688 -0.025,0.22049 -0.22586,0.42135 -0.44636,0.44636 -0.87317,0.099 -1.77081,1.23424 -1.51108,1.91107 0.15115,0.39389 0.0418,0.71617 -0.24294,0.71617 -0.28477,0 -0.51777,0.37501 -0.51777,0.83335 0,0.45835 0.23779,0.6864 0.52842,0.50678 0.30301,-0.18727 0.39262,0.0273 0.21008,0.50299 -0.17509,0.45626 -0.0521,0.82957 0.27339,0.82957 0.32545,0 0.54063,0.18041 0.47817,0.4009 -0.24505,0.86506 1.19412,2.63143 3.40621,4.18062 2.16575,1.51674 2.4444,1.58039 4.19089,0.95722 1.02899,-0.36715 3.25401,-0.68112 4.94449,-0.69772 1.69048,-0.0166 3.07383,-0.21057 3.07411,-0.43107 0.001,-0.68042 7.7651,-0.77737 10.17994,-0.12712 1.25559,0.3381 2.99841,1.33025 3.87296,2.2048 1.49002,1.49001 1.56627,1.76479 1.21167,4.36659 -0.20812,1.52709 -0.4004,3.06663 -0.42728,3.42119 -0.0269,0.35456 -0.24934,0.52077 -0.49434,0.36935 -0.24499,-0.15141 -0.44544,0.19425 -0.44544,0.76813 0,0.5739 -0.37606,1.18775 -0.83569,1.36413 -0.45963,0.17637 -0.68597,0.56292 -0.503,0.859 0.18299,0.29607 0.0638,0.53831 -0.26493,0.53831 -0.3287,0 -0.44897,0.24054 -0.26727,0.53454 0.1817,0.29399 0.0858,0.53454 -0.21319,0.53454 -0.73905,0 -3.42101,4.65455 -3.03854,5.27339 0.16809,0.27198 -0.0788,0.64202 -0.54857,0.8223 -0.46981,0.18028 -0.72416,0.66666 -0.56523,1.08085 0.15894,0.41419 -0.0816,0.89527 -0.53454,1.06908 -0.47758,0.18327 -0.69052,0.66259 -0.50691,1.14108 0.20649,0.53808 0.10122,0.69195 -0.30264,0.44234 -0.41356,-0.25559 -0.50588,-0.0873 -0.27792,0.50678 0.18773,0.48922 0.0941,0.8895 -0.20798,0.8895 -0.30212,0 -0.40065,0.24054 -0.21895,0.53454 0.1817,0.29399 0.0499,0.53453 -0.29291,0.53453 -0.34368,0 -0.48047,0.37214 -0.30494,0.82958 0.18254,0.4757 0.0929,0.69026 -0.21008,0.50299 -0.44832,-0.27708 -0.63858,0.36228 -0.49282,1.65608 0.0196,0.17377 -0.36377,0.60796 -0.85187,0.96487 -0.4881,0.35692 -0.92507,1.29701 -0.97104,2.08911 -0.046,0.79209 -0.24408,1.44034 -0.44027,1.44054 -0.46215,5.3e-4 -2.06977,4.20856 -2.18323,5.71476 -0.0481,0.63831 -0.31592,1.01934 -0.5952,0.84674 -0.29166,-0.18026 -0.37941,0.17708 -0.20616,0.83958 0.19327,0.73909 0.0973,1.02711 -0.26727,0.80181 -0.35536,-0.21963 -0.46732,0.0368 -0.29828,0.68322 0.14884,0.56915 -0.0744,1.35707 -0.49601,1.75094 -0.42165,0.39388 -0.65134,1.15701 -0.51043,1.69584 0.14091,0.53884 0.009,1.06205 -0.29274,1.16269 -0.30193,0.10064 -0.57707,0.93043 -0.61144,1.84397 -0.0344,0.91354 -0.27775,1.52861 -0.54088,1.36682 -0.26312,-0.1618 -0.35801,0.33566 -0.21085,1.10545 0.15353,0.80312 0.053,1.26701 -0.23589,1.08847 -0.2769,-0.17113 -0.44693,0.2571 -0.37784,0.95162 0.0691,0.69452 -0.0575,1.6873 -0.28141,2.20619 -0.22385,0.51889 -0.28205,1.42126 -0.12932,2.00526 0.15271,0.58401 0.0596,0.92703 -0.20702,0.76228 -0.26658,-0.16476 -0.48469,0.19572 -0.48469,0.80107 0,0.60534 0.24054,1.10062 0.53454,1.10062 0.294,0 0.4744,0.28147 0.40091,0.62547 -0.0931,0.43595 1.19046,0.63296 4.23638,0.6502 2.4035,0.0136 4.28387,0.1641 4.17858,0.33446 -0.10528,0.17035 1.00402,0.8773 2.46512,1.57099 1.46111,0.69368 2.78076,1.4622 2.93255,1.70782 0.1518,0.24562 -0.57872,0.85416 -1.62338,1.35233 -1.04465,0.49816 -1.89955,1.0416 -1.89976,1.20765 -2e-4,0.16605 -0.64845,0.33951 -1.44054,0.38548 -0.7921,0.046 -1.69396,0.42789 -2.00415,0.84872 -0.31018,0.42083 -0.89813,0.6527 -1.30655,0.51525 -0.4474,-0.15056 -0.59572,-0.0123 -0.37314,0.34786 0.2352,0.38057 0.068,0.4821 -0.46013,0.27944 -0.45627,-0.17509 -0.82958,-0.0596 -0.82958,0.25661 0,0.31665 -0.39961,0.4216 -0.88949,0.23362 -0.62023,-0.23801 -0.76581,-0.1412 -0.4809,0.3198 0.25298,0.40933 0.13369,0.62339 -0.31322,0.56204 -1.46775,-0.20148 -2.11277,0.0413 -1.73475,0.65296 0.25988,0.4205 0.0951,0.51356 -0.50299,0.28405 -1.08766,-0.41738 -2.59668,0.0942 -2.19501,0.74408 0.16058,0.25982 -0.0814,0.32915 -0.53761,0.15407 -0.45627,-0.17509 -0.82957,-0.0596 -0.82957,0.25662 0,0.31664 -0.39962,0.4216 -0.8895,0.23362 -0.59404,-0.22796 -0.76237,-0.13564 -0.50678,0.27792 0.25005,0.40459 0.0951,0.5089 -0.44684,0.30092 -0.45627,-0.17509 -0.82958,-0.0596 -0.82958,0.25661 0,0.31665 -0.39962,0.42161 -0.88949,0.23362 -0.59405,-0.22795 -0.76238,-0.13563 -0.50678,0.27793 0.24259,0.39252 0.10422,0.51238 -0.37793,0.32736 -0.41835,-0.16054 -1.1353,0.0828 -1.5932,0.54066 -0.4579,0.45791 -1.33082,0.83256 -1.93981,0.83256 -0.60899,0 -1.10726,0.23299 -1.10726,0.51776 0,0.28476 -0.40027,0.36416 -0.88949,0.17643 -0.59404,-0.22795 -0.76238,-0.13564 -0.50678,0.27792 0.24259,0.39252 0.10422,0.51239 -0.37793,0.32737 -0.41835,-0.16054 -1.09449,0.042 -1.50252,0.44998 -0.40803,0.40802 -1.07388,0.6312 -1.47967,0.49594 -0.44299,-0.14767 -0.59019,-0.007 -0.36837,0.35182 0.22799,0.36891 0.0782,0.48601 -0.39121,0.30588 -0.41836,-0.16054 -1.15063,0.0981 -1.62728,0.57474 -0.47665,0.47664 -1.08963,0.72881 -1.36218,0.56037 -0.27255,-0.16845 -0.81776,0.0159 -1.21158,0.40978 -0.39383,0.39382 -1.04806,0.60536 -1.45385,0.4701 -0.44299,-0.14767 -0.59019,-0.007 -0.36837,0.35182 0.228,0.36891 0.0782,0.48602 -0.39121,0.30588 -0.41835,-0.16054 -1.12384,0.0713 -1.56774,0.51521 -0.4439,0.4439 -0.92492,0.68927 -1.06893,0.54526 -0.36184,-0.36184 -3.07268,0.91815 -3.07268,1.45085 0,0.23758 -0.32979,0.3054 -0.73288,0.15072 -0.40309,-0.15467 -1.09608,0.082 -1.53998,0.52586 -0.4439,0.44391 -0.92492,0.68928 -1.06893,0.54527 -0.47847,-0.47848 -3.11804,1.02712 -2.88148,1.64358 0.15141,0.39457 -0.30747,0.52664 -1.31569,0.37866 -0.89409,-0.13122 -1.5482,0.0172 -1.5482,0.35121 0,0.31989 -0.39757,0.42587 -0.88949,0.2371 -0.59405,-0.22795 -0.76238,-0.13564 -0.50678,0.27792 0.24258,0.39252 0.10422,0.51239 -0.37793,0.32737 -0.41836,-0.16054 -1.09449,0.042 -1.50252,0.44998 -0.40803,0.40803 -1.07388,0.6312 -1.47967,0.49594 -0.49072,-0.16358 -0.59572,-0.016 -0.31355,0.44054 0.26532,0.42929 0.21114,0.55475 -0.14462,0.33487 -0.81193,-0.50179 -2.33106,0.18808 -1.91096,0.86781 0.22067,0.35705 0.0202,0.44208 -0.53761,0.22803 -1.16378,-0.44658 -2.58491,0.11322 -2.13508,0.84105 0.22117,0.35786 0.0191,0.44166 -0.54395,0.2256 -1.1309,-0.43397 -3.6367,0.66791 -3.18414,1.40017 0.20565,0.33273 -0.0129,0.41247 -0.55763,0.20345 -1.1309,-0.43397 -3.6367,0.66791 -3.18414,1.40017 0.20516,0.33195 -0.0117,0.41294 -0.5513,0.20587 -1.16379,-0.44658 -2.58491,0.11322 -2.13509,0.84105 0.22067,0.35705 0.0202,0.44208 -0.53761,0.22803 -1.08765,-0.41737 -2.59667,0.0942 -2.19501,0.74409 0.16058,0.25982 -0.0813,0.32915 -0.5376,0.15407 -0.46899,-0.17997 -0.82958,-0.0363 -0.82958,0.33058 0,0.3569 -0.35385,0.51313 -0.78634,0.34717 -0.43248,-0.16597 -1.09612,0.008 -1.47475,0.38667 -0.37863,0.37862 -1.02043,0.57774 -1.42622,0.44248 -0.44674,-0.14892 -0.59057,-0.008 -0.36459,0.35795 0.38745,0.6269 -0.0121,0.71298 -1.15985,0.24987 z"
       id="path42"
       inkscape:connector-curvature="0" />
    <path
       style="color:#000000;font-style:normal;font-variant:normal;font-weight:normal;font-stretch:normal;font-size:medium;line-height:normal;font-family:sans-serif;font-variant-ligatures:normal;font-variant-position:normal;font-variant-caps:normal;font-variant-numeric:normal;font-variant-alternates:normal;font-feature-settings:normal;text-indent:0;text-align:start;text-decoration:none;text-decoration-line:none;text-decoration-style:solid;text-decoration-color:#000000;letter-spacing:normal;word-spacing:normal;text-transform:none;writing-mode:lr-tb;direction:ltr;text-orientation:mixed;dominant-baseline:auto;baseline-shift:baseline;text-anchor:start;white-space:normal;shape-padding:0;clip-rule:nonzero;display:inline;overflow:visible;visibility:visible;opacity:1;isolation:auto;mix-blend-mode:normal;color-interpolation:sRGB;color-interpolation-filters:linearRGB;solid-color:#000000;solid-opacity:1;vector-effect:none;fill:#44aa00;fill-opacity:1;fill-rule:nonzero;stroke:url(#linearGradient4602);stroke-width:4.91900015;stroke-linecap:butt;stroke-linejoin:miter;stroke-miterlimit:4;stroke-dasharray:none;stroke-dashoffset:0;stroke-opacity:1;color-rendering:auto;image-rendering:auto;shape-rendering:auto;text-rendering:auto;enable-background:accumulate"
       d="M 169.98443,19.442633 C 98.622309,19.442633 40.759,78.130642 40.759,150.5352 c 0,72.40455 57.863309,131.095 129.22543,131.095 71.36211,0 129.22316,-58.69045 129.22314,-131.095 0,-72.404558 -57.86103,-131.092567 -129.22314,-131.092567 z m 0,0.329508 c 71.20418,0 128.91331,58.547225 128.91331,130.763059 0,72.21582 -57.70913,130.76549 -128.91331,130.76549 -71.204189,0 -128.91559,-58.54967 -128.91559,-130.76549 0,-72.215834 57.711401,-130.763059 128.91559,-130.763059 z"
       id="path3789"
       inkscape:connector-curvature="0" />
  </g>
</svg>
